HIERARCHY
ROOT Hips
{
	OFFSET 36.867802 -21.303015 92.915199
	CHANNELS 6 Xposition Yposition Zposition Xrotation Yrotation Zrotation
	JOINT spine
	{
		OFFSET 0.000000 -0.429888 7.475601
		CHANNELS 3 Xrotation Yrotation Zrotation
		JOINT spine1
		{
			OFFSET 0.000000 0.000000 9.923012
			CHANNELS 3 Xrotation Yrotation Zrotation
			JOINT spine2
			{
				OFFSET 0.000000 -0.000002 9.508041
				CHANNELS 3 Xrotation Yrotation Zrotation
				JOINT Neck
				{
					OFFSET 0.000000 -1.163843 24.411102
					CHANNELS 3 Xrotation Yrotation Zrotation
					JOINT Head
					{
						OFFSET 0.000000 -0.000002 7.375229
						CHANNELS 3 Xrotation Yrotation Zrotation
						End Site
						{
							OFFSET 0.000000 5.887407 17.852203
						}
					}
				}
				JOINT RightShoulder
				{
					OFFSET -4.003559 0.557467 10.267899
					CHANNELS 3 Xrotation Yrotation Zrotation
					JOINT RightArm
					{
						OFFSET 0.000000 -0.000002 13.467300
						CHANNELS 3 Xrotation Yrotation Zrotation
						JOINT RightArmRoll
						{
							OFFSET 0.000000 -0.000002 6.798569
							CHANNELS 3 Xrotation Yrotation Zrotation
							JOINT RightForeArm
							{
								OFFSET 0.000000 -0.000004 19.801804
								CHANNELS 3 Xrotation Yrotation Zrotation
								JOINT RightForeArmRoll
								{
									OFFSET 0.000000 0.000000 7.629044
									CHANNELS 3 Xrotation Yrotation Zrotation
									JOINT RightHand
									{
										OFFSET 0.000000 -0.000002 15.309799
										CHANNELS 3 Xrotation Yrotation Zrotation
										End Site
										{
											OFFSET 0.000000 -0.000002 0.100006
										}
									}
								}
							}
						}
					}
				}
				JOINT LeftShoulder
				{
					OFFSET 4.003559 0.557467 10.267899
					CHANNELS 3 Xrotation Yrotation Zrotation
					JOINT LeftArm
					{
						OFFSET 0.000000 -0.000002 13.467300
						CHANNELS 3 Xrotation Yrotation Zrotation
						JOINT LeftArmRoll
						{
							OFFSET 0.000000 -0.000002 6.798569
							CHANNELS 3 Xrotation Yrotation Zrotation
							JOINT LeftForeArm
							{
								OFFSET 0.000000 -0.000004 19.801804
								CHANNELS 3 Xrotation Yrotation Zrotation
								JOINT LeftForeArmRoll
								{
									OFFSET 0.000000 0.000000 7.629044
									CHANNELS 3 Xrotation Yrotation Zrotation
									JOINT LeftHand
									{
										OFFSET 0.000000 -0.000002 15.309799
										CHANNELS 3 Xrotation Yrotation Zrotation
										End Site
										{
											OFFSET 0.000000 -0.000002 0.100006
										}
									}
								}
							}
						}
					}
				}
			}
		}
	}
	JOINT RightUpLeg
	{
		OFFSET -6.626091 1.019270 -1.215050
		CHANNELS 3 Xrotation Yrotation Zrotation
		JOINT RightUpLegRoll
		{
			OFFSET 0.000000 -0.000002 17.951698
			CHANNELS 3 Xrotation Yrotation Zrotation
			JOINT RightLeg
			{
				OFFSET 0.000000 0.000004 -22.230400
				CHANNELS 3 Xrotation Yrotation Zrotation
				JOINT RightLegRoll
				{
					OFFSET 0.000000 -0.000004 22.303200
					CHANNELS 3 Xrotation Yrotation Zrotation
					JOINT RightFoot
					{
						OFFSET 0.000000 -0.000004 18.563606
						CHANNELS 3 Xrotation Yrotation Zrotation
						JOINT RightToeBase
						{
							OFFSET 0.000000 -0.000002 15.518295
							CHANNELS 3 Xrotation Yrotation Zrotation
							End Site
							{
								OFFSET 0.006578 0.866261 7.515396
							}
						}
					}
				}
			}
		}
	}
	JOINT LeftUpLeg
	{
		OFFSET 6.626091 1.019270 -1.215050
		CHANNELS 3 Xrotation Yrotation Zrotation
		JOINT LeftUpLegRoll
		{
			OFFSET 0.000000 -0.000002 17.951797
			CHANNELS 3 Xrotation Yrotation Zrotation
			JOINT LeftLeg
			{
				OFFSET 0.000000 -0.000004 22.230301
				CHANNELS 3 Xrotation Yrotation Zrotation
				JOINT LeftLegRoll
				{
					OFFSET 0.000000 -0.000004 22.509293
					CHANNELS 3 Xrotation Yrotation Zrotation
					JOINT LeftFoot
					{
						OFFSET 0.000000 -0.000004 18.357498
						CHANNELS 3 Xrotation Yrotation Zrotation
						JOINT LeftToeBase
						{
							OFFSET 0.000000 -0.000002 15.518295
							CHANNELS 3 Xrotation Yrotation Zrotation
							End Site
							{
								OFFSET -0.029476 0.866261 7.515381
							}
						}
					}
				}
			}
		}
	}
}
MOTION
Frames: 13
Frame Time: 0.041667
41.729404 -17.944822 93.293106 0.592328 -2.161986 71.475949 -0.523192 0.219167 0.473252 2.938732 0.428201 0.933793 4.583745 0.439330 0.928499 3.637604 10.830856 -2.176587 2.599530 -14.660451 -1.729914 -6.181909 -57.208056 -7.150566 138.355672 -20.916397 64.559617 0.000000 0.000012 -0.000006 68.485917 -11.398141 9.267530 0.000010 0.000007 -3.004989 -4.999937 -7.998757 -0.000218 -5.588801 71.336292 7.632847 75.432985 30.102064 -46.788469 -0.000001 0.000005 0.000004 26.152287 35.811645 -10.593991 -0.000002 0.000008 3.007281 -5.000487 8.000685 0.000126 0.067366 178.726994 -1.239000 -179.999991 0.000005 -1.079000 170.733160 -2.477283 -0.607066 -0.000023 -0.000002 0.167299 70.794774 6.813558 2.203870 25.456890 -7.359227 -0.000003 -10.761595 179.445913 6.206739 -0.000006 -0.000004 -0.994201 -13.037252 -2.162540 0.236494 0.000003 -0.000002 -0.065855 67.796615 -6.963365 -2.024090 25.456938 7.350260 0.000002 
41.702904 -17.968821 93.294510 0.619515 -2.159214 71.541847 -0.521841 0.220469 0.473744 2.942573 0.431018 0.935683 4.587596 0.442171 0.930362 3.609779 10.832879 -2.162977 2.613509 -14.659690 -1.717343 -6.152843 -57.211990 -7.116319 138.353787 -21.089532 64.777138 -0.000001 0.000013 -0.000007 68.318462 -11.487342 9.318575 0.000010 0.000006 -3.004992 -4.999938 -7.998757 -0.000219 -5.701007 71.297285 7.753541 75.381991 30.159052 -46.776223 0.000000 0.000003 0.000004 26.209444 35.741670 -10.584418 0.000001 0.000009 3.007283 -5.000484 8.000681 0.000127 0.053821 178.731994 -1.236813 -179.999991 0.000005 -1.079001 170.730414 -2.481214 -0.607828 -0.000022 -0.000002 0.167300 70.813496 6.813537 2.203821 25.456894 -7.359231 -0.000002 -10.836275 179.460775 6.181133 -0.000007 -0.000004 -0.993896 -13.120022 -2.117625 0.241303 0.000003 -0.000003 -0.066763 67.786882 -6.963479 -2.025030 25.456936 7.350260 0.000002 
41.674500 -17.990921 93.293503 0.647064 -2.155754 71.608741 -0.520565 0.221830 0.474145 2.946305 0.433919 0.937414 4.591329 0.445095 0.932063 3.582044 10.836293 -2.149693 2.627421 -14.660538 -1.705097 -6.123124 -57.214548 -7.081158 138.359320 -21.260185 64.993724 0.000001 0.000012 -0.000008 68.153369 -11.576826 9.369219 0.000010 0.000006 -3.004992 -4.999939 -7.998756 -0.000220 -5.811370 71.259562 7.872319 75.329712 30.213673 -46.760387 -0.000001 0.000006 0.000005 26.267267 35.673388 -10.575542 -0.000002 0.000008 3.007281 -5.000488 8.000686 0.000125 0.039019 178.735997 -1.234534 -179.999991 0.000005 -1.079001 170.726930 -2.486124 -0.607783 -0.000022 -0.000002 0.167302 70.832449 6.813571 2.203867 25.456889 -7.359227 -0.000004 -10.913154 179.474668 6.156440 -0.000005 -0.000004 -0.993605 -13.203603 -2.073538 0.246195 0.000003 -0.000002 -0.067592 67.776835 -6.963640 -2.025795 25.456938 7.350265 0.000002 
41.643303 -18.018623 93.289101 0.674796 -2.151801 71.676231 -0.519341 0.223234 0.474472 2.949966 0.436879 0.939028 4.594981 0.448077 0.933647 3.554360 10.840704 -2.136637 2.641297 -14.662480 -1.693082 -6.092917 -57.216020 -7.045338 138.370207 -21.430256 65.208376 -0.000001 0.000015 -0.000009 67.989950 -11.666545 9.419218 0.000010 0.000007 -3.004990 -4.999938 -7.998756 -0.000218 -5.920325 71.222815 7.989605 75.276444 30.266716 -46.741942 -0.000004 0.000002 0.000005 26.325800 35.606196 -10.567251 0.000000 0.000009 3.007282 -5.000485 8.000684 0.000126 0.023335 178.740996 -1.232184 -179.999991 0.000005 -1.079001 170.722942 -2.490046 -0.607594 -0.000021 -0.000002 0.167304 70.851622 6.813632 2.203802 25.456892 -7.359227 -0.000003 -10.991530 179.488560 6.132263 -0.000004 -0.000004 -0.993328 -13.287894 -2.030025 0.251176 0.000004 -0.000002 -0.068383 67.766391 -6.963835 -2.026594 25.456938 7.350259 0.000003 
41.615002 -18.030918 93.289215 0.702543 -2.147538 71.744232 -0.518154 0.224662 0.474763 2.953577 0.439875 0.940578 4.598593 0.451092 0.935171 3.526714 10.845715 -2.123724 2.655132 -14.665021 -1.681193 -6.062449 -57.216993 -7.009163 138.385069 -21.600144 65.421840 0.000000 0.000016 -0.000009 67.827651 -11.756552 9.468695 0.000010 0.000004 -3.004988 -4.999937 -7.998754 -0.000221 -6.028343 71.186629 8.105912 75.222601 30.318810 -46.722022 -0.000001 0.000004 0.000006 26.384551 35.539827 -10.559191 -0.000002 0.000008 3.007280 -5.000487 8.000680 0.000126 0.007145 178.745996 -1.229798 -179.999991 0.000005 -1.079004 170.718652 -2.493965 -0.607427 -0.000022 -0.000002 0.167302 70.871006 6.813645 2.203819 25.456892 -7.359225 -0.000002 -11.070807 179.503409 6.108172 -0.000006 -0.000004 -0.993052 -13.372390 -1.986856 0.256263 0.000003 -0.000002 -0.069142 67.755845 -6.964057 -2.027303 25.456940 7.350258 0.000003 
41.583405 -18.059422 93.290703 0.730128 -2.143148 71.812199 -0.516973 0.226095 0.475041 2.957179 0.442878 0.942113 4.602194 0.454116 0.936677 3.499076 10.850917 -2.110839 2.668981 -14.667659 -1.669348 -6.031908 -57.217772 -6.972883 138.402951 -21.769580 65.635488 0.000000 0.000014 -0.000008 67.665598 -11.846965 9.517745 0.000010 0.000006 -3.004990 -4.999938 -7.998756 -0.000218 -6.135781 71.150381 8.221612 75.168513 30.370685 -46.701483 -0.000002 0.000002 0.000007 26.443429 35.473612 -10.551107 -0.000001 0.000010 3.007281 -5.000489 8.000682 0.000124 -0.009172 178.752007 -1.227400 -179.999991 0.000005 -1.079002 170.714281 -2.497885 -0.608263 -0.000022 -0.000001 0.167300 70.890397 6.813711 2.203641 25.456889 -7.359230 -0.000005 -11.150291 179.517288 6.084302 -0.000005 -0.000004 -0.992780 -13.457092 -1.943790 0.261476 0.000004 -0.000002 -0.069895 67.745293 -6.964278 -2.028014 25.456938 7.350260 0.000002 
41.578503 -18.076424 93.293297 0.757394 -2.138813 71.880173 -0.515772 0.227517 0.475341 2.960800 0.445865 0.943678 4.605817 0.457124 0.938215 3.471416 10.855721 -2.097874 2.682840 -14.670095 -1.657426 -6.001505 -57.218827 -6.936775 138.422157 -21.939734 65.849246 0.000001 0.000012 -0.000011 67.503272 -11.937802 9.566395 0.000011 0.000004 -3.004991 -4.999937 -7.998756 -0.000221 -6.243094 71.113867 8.337185 75.114725 30.423025 -46.681826 -0.000002 -0.000001 0.000006 26.502024 35.407164 -10.542651 0.000003 0.000007 3.007282 -5.000486 8.000684 0.000126 -0.025231 178.757006 -1.225035 -179.999991 0.000005 -1.079003 170.710060 -2.502789 -0.608255 -0.000022 -0.000002 0.167300 70.909685 6.813764 2.203570 25.456889 -7.359229 -0.000002 -11.229367 179.532137 6.060045 -0.000005 -0.000004 -0.992500 -13.541594 -1.900575 0.266826 0.000003 -0.000002 -0.070666 67.734747 -6.964494 -2.028724 25.456936 7.350260 0.000003 
41.545502 -18.099720 93.284599 0.784177 -2.134712 71.947614 -0.514535 0.228910 0.475686 2.964471 0.448809 0.945325 4.609489 0.460090 0.939833 3.443716 10.859924 -2.084749 2.696720 -14.671637 -1.645347 -5.971421 -57.220559 -6.901133 138.441514 -22.111050 66.063714 -0.000001 0.000012 -0.000008 67.339873 -12.029123 9.614740 0.000010 0.000007 -3.004989 -4.999937 -7.998755 -0.000220 -6.350698 71.076560 8.453063 75.061573 30.476444 -46.663835 0.000001 0.000005 0.000005 26.560188 35.340048 -10.533639 0.000001 0.000008 3.007281 -5.000484 8.000683 0.000126 -0.040665 178.762006 -1.222721 -179.999991 0.000005 -1.078998 170.706208 -2.506712 -0.608071 -0.000022 -0.000002 0.167298 70.928858 6.813779 2.203599 25.456892 -7.359226 -0.000003 -11.307347 179.545989 6.035548 -0.000005 -0.000004 -0.992220 -13.625595 -1.856983 0.272336 0.000003 -0.000003 -0.071465 67.724399 -6.964652 -2.029608 25.456938 7.350261 0.000003 
41.523205 -18.121819 93.287109 0.810317 -2.131050 72.014332 -0.513236 0.230253 0.476111 2.968242 0.451687 0.947098 4.613261 0.462990 0.941580 3.415950 10.862828 -2.071339 2.710663 -14.671975 -1.633002 -5.941853 -57.223369 -6.866207 138.459833 -22.284016 66.279801 0.000002 0.000012 -0.000009 67.174760 -12.121001 9.662606 0.000010 0.000006 -3.004992 -4.999937 -7.998757 -0.000219 -6.458884 71.037861 8.569553 75.009377 30.531762 -46.648577 0.000001 0.000003 0.000004 26.617548 35.271561 -10.523622 0.000001 0.000009 3.007279 -5.000488 8.000680 0.000125 -0.055088 178.765995 -1.220484 -179.999991 0.000005 -1.079001 170.702970 -2.510625 -0.608857 -0.000022 -0.000002 0.167300 70.947709 6.813811 2.203552 25.456892 -7.359227 -0.000004 -11.383626 179.559827 6.010412 -0.000005 -0.000005 -0.991925 -13.708997 -1.812771 0.278013 0.000004 -0.000002 -0.072323 67.714461 -6.964810 -2.030369 25.456936 7.350260 0.000002 
41.496399 -18.143719 93.281609 0.835675 -2.128006 72.080127 -0.511854 0.231528 0.476647 2.972133 0.454471 0.949046 4.617143 0.465799 0.943504 3.388082 10.864132 -2.057566 2.724664 -14.670613 -1.620291 -5.912999 -57.227730 -6.832267 138.475528 -22.459810 66.497281 0.000001 0.000015 -0.000008 67.007263 -12.213498 9.710278 0.000010 0.000007 -3.004990 -4.999938 -7.998757 -0.000219 -6.568112 70.997549 8.687131 74.958717 30.589699 -46.637324 -0.000001 0.000003 0.000007 26.673866 35.201378 -10.512370 0.000000 0.000010 3.007282 -5.000488 8.000682 0.000126 -0.068128 178.770994 -1.218360 -179.999991 0.000005 -1.079001 170.700525 -2.514558 -0.608616 -0.000021 -0.000001 0.167301 70.966246 6.813831 2.203421 25.456889 -7.359226 -0.000005 -11.457508 179.573678 5.984369 -0.000006 -0.000004 -0.991615 -13.791597 -1.767688 0.283878 0.000004 -0.000002 -0.073249 67.704926 -6.964887 -2.031386 25.456938 7.350262 0.000001 
41.479500 -18.156021 93.282600 0.860091 -2.125771 72.144604 -0.510365 0.232720 0.477323 2.976175 0.457136 0.951219 4.621184 0.468493 0.945655 3.360113 10.863441 -2.043338 2.738750 -14.667056 -1.607140 -5.885065 -57.234161 -6.799603 138.487823 -22.638194 66.717739 0.000001 0.000012 -0.000008 66.836645 -12.306719 9.757659 0.000010 0.000005 -3.004989 -4.999937 -7.998758 -0.000218 -6.678709 70.955079 8.806160 74.909847 30.650949 -46.631037 -0.000001 0.000004 0.000004 26.728870 35.129101 -10.499621 0.000001 0.000006 3.007280 -5.000483 8.000682 0.000126 -0.079403 178.774997 -1.216384 -179.999991 0.000005 -1.079000 170.699091 -2.518498 -0.608308 -0.000022 -0.000002 0.167302 70.984339 6.813778 2.203505 25.456892 -7.359226 -0.000003 -11.528292 179.586505 5.957407 -0.000005 -0.000004 -0.991293 -13.872889 -1.721509 0.289952 0.000004 -0.000002 -0.074276 67.695904 -6.964935 -2.032466 25.456935 7.350261 0.000003 
41.453705 -18.179619 93.278099 0.883424 -2.124549 72.207551 -0.508746 0.233808 0.478159 2.980406 0.459658 0.953666 4.625416 0.471046 0.948076 3.331990 10.860150 -2.028531 2.752941 -14.660890 -1.593427 -5.858231 -57.242938 -6.768480 138.495049 -22.821141 66.940594 0.000002 0.000012 -0.000009 66.662359 -12.400715 9.804856 0.000010 0.000002 -3.004988 -4.999938 -7.998756 -0.000220 -6.791038 70.910061 8.926976 74.863245 30.716180 -46.630644 0.000000 0.000003 0.000007 26.782422 35.053965 -10.485055 -0.000001 0.000011 3.007282 -5.000492 8.000687 0.000126 -0.088535 178.779013 -1.214574 -179.999991 0.000005 -1.079002 170.698940 -2.522447 -0.607967 -0.000022 -0.000002 0.167302 71.001790 6.813746 2.203531 25.456890 -7.359227 -0.000002 -11.595375 179.599346 5.929096 -0.000006 -0.000004 -0.990944 -13.952878 -1.673977 0.296256 0.000003 -0.000003 -0.075408 67.687673 -6.964828 -2.033764 25.456941 7.350259 0.000003 
41.444809 -18.200920 93.281609 0.905530 -2.124517 72.268770 -0.506974 0.234775 0.479196 2.984857 0.462012 0.956432 4.629878 0.473434 0.950816 3.303717 10.853964 -2.013074 2.767242 -14.651630 -1.579065 -5.832680 -57.254447 -6.739116 138.496524 -23.008438 67.167370 0.000002 0.000015 -0.000007 66.483525 -12.495570 9.851734 0.000009 0.000003 -3.004989 -4.999938 -7.998755 -0.000220 -6.905327 70.861874 9.049880 74.819415 30.786190 -46.637590 0.000000 0.000001 0.000006 26.834194 34.975777 -10.468446 -0.000001 0.000011 3.007283 -5.000490 8.000683 0.000125 -0.095149 178.782018 -1.212967 -179.999991 0.000005 -1.079002 170.700224 -2.526407 -0.608556 -0.000022 -0.000002 0.167300 71.018695 6.813637 2.203577 25.456889 -7.359226 -0.000004 -11.658160 179.612173 5.899200 -0.000005 -0.000004 -0.990568 -14.031159 -1.624858 0.302803 0.000003 -0.000003 -0.076683 67.680174 -6.964675 -2.035108 25.456941 7.350260 0.000003 
